<mxfile host="app.diagrams.net" modified="2024-01-14T04:50:48.800Z" agent="Mozilla/5.0 (Macintosh; Intel Mac OS X 10_15_7) AppleWebKit/537.36 (KHTML, like Gecko) Chrome/120.0.0.0 Safari/537.36" version="22.1.18" etag="_LSG8bvyauRKFJboBk2O" type="github">
  <diagram name="페이지-1" id="ggwMGOR_yLO9ytXjtbMe">
    <mxGraphModel>
      <root>
        <mxCell id="0" />
        <mxCell id="1" parent="0" />
      </root>
    </mxGraphModel>
  </diagram>
</mxfile>
